<?xml version="1.0" encoding="utf-8"?>
<!-- Generator: Adobe Illustrator 22.0.1, SVG Export Plug-In . SVG Version: 6.00 Build 0)  -->
<svg version="1.1" id="Layer_1" xmlns="http://www.w3.org/2000/svg" xmlns:xlink="http://www.w3.org/1999/xlink" x="0px" y="0px"
	 width="100px" height="100px" viewBox="0 0 100 100" style="enable-background:new 0 0 100 100;" xml:space="preserve">
<path d="M52.7,73.3L52,73.7c0.1,0.3,0.1,0.5,0.1,0.8c0,0.3-0.1,0.5-0.2,0.8l0.7,0.5c0.4,0.2,0.5,0.7,0.2,1c-0.2,0.4-0.7,0.5-1,0.2
	l-0.7-0.5c-0.4,0.4-0.9,0.6-1.4,0.7l0,0.9c0,0.4-0.4,0.7-0.8,0.7c-0.4,0-0.7-0.4-0.7-0.8l0-0.9c-0.5-0.2-1-0.5-1.4-0.9L46,76.8
	c-0.4,0.2-0.8,0-1-0.3c-0.2-0.4,0-0.8,0.3-1l0.8-0.4C46,74.8,46,74.5,46,74.2c0-0.3,0.1-0.5,0.2-0.8l-0.7-0.5
	c-0.4-0.2-0.5-0.7-0.2-1c0.2-0.4,0.7-0.5,1-0.2l0.7,0.5c0.4-0.4,0.9-0.6,1.4-0.7l0-0.9c0-0.4,0.4-0.7,0.8-0.7c0.4,0,0.7,0.4,0.7,0.8
	l0,0.9c0.5,0.2,1,0.5,1.4,0.9L52,72c0.4-0.2,0.8,0,1,0.3C53.2,72.7,53.1,73.1,52.7,73.3z M49.1,72.9c-0.8,0-1.5,0.6-1.6,1.4
	c0,0.8,0.6,1.5,1.4,1.6s1.5-0.6,1.6-1.4C50.6,73.6,49.9,72.9,49.1,72.9z"/>
<path d="M64,64.9v-4.4c2.4-1.4,4-4,4-6.9c0-4.4-3.6-8-8-8c-1.6,0-3.1,0.5-4.3,1.3c-1.2-5.3-6-9.3-11.7-9.3c-6.6,0-12,5.4-12,12
	c0,3.5,1.5,6.7,4,8.9v4.9c-4.8-2.8-8-7.9-8-13.8c0-8.8,7.2-16,16-16c6,0,11.2,3.3,14,8.2c0.7-0.1,1.3-0.2,2-0.2c6.6,0,12,5.4,12,12
	C72,58.9,68.7,63.3,64,64.9z"/>
<path d="M59.6,67.6l2.3,2.3c1.3,1.3,1.3,3.3,0,4.5c-1.3,1.3-3.3,1.3-4.5,0c-1.3-1.3-1.3-3.3,0-4.5L59.6,67.6z"/>
<path d="M50.7,59l1.6,1.6c0.9,0.9,0.9,2.3,0,3.2c-0.9,0.9-2.3,0.9-3.2,0c-0.9-0.9-0.9-2.3,0-3.2L50.7,59z"/>
<path d="M41.3,61.4l2.3,2.3c1.3,1.3,1.3,3.3,0,4.5c-1.3,1.3-3.3,1.3-4.5,0c-1.3-1.3-1.3-3.3,0-4.5L41.3,61.4z"/>
</svg>
